<?xml version="1.0" standalone="no"?>
<!DOCTYPE svg PUBLIC "-//W3C//DTD SVG 20010904//EN"
 "http://www.w3.org/TR/2001/REC-SVG-20010904/DTD/svg10.dtd">
<svg version="1.0" xmlns="http://www.w3.org/2000/svg"
 width="512.000000pt" height="512.000000pt" viewBox="0 0 512.000000 512.000000"
 preserveAspectRatio="xMidYMid meet">
<metadata>
Created by potrace 1.11, written by Peter Selinger 2001-2013
</metadata>
<g transform="translate(0.000000,512.000000) scale(0.100000,-0.100000)"
fill="#000000" stroke="none">
<path d="M2498 4475 c-2 -1 -30 -5 -63 -9 -225 -23 -487 -114 -695 -239 -185
-112 -396 -309 -522 -487 -79 -110 -183 -315 -229 -447 -32 -94 -39 -102 -95
-109 -41 -4 -200 -56 -264 -86 -162 -76 -347 -229 -437 -363 -88 -131 -149
-287 -177 -455 -17 -97 -15 -323 4 -410 6 -30 13 -65 16 -77 8 -41 56 -167 87
-228 102 -204 279 -381 484 -484 98 -49 176 -75 323 -107 19 -5 773 -9 1675
-11 1442 -2 1650 -1 1720 13 431 83 718 368 779 772 13 86 14 313 1 382 -27
152 -95 323 -173 436 -50 74 -177 204 -199 204 -3 0 -20 10 -37 23 -35 26
-111 60 -173 76 -34 9 -43 17 -44 34 -17 598 -331 1076 -889 1357 -193 97
-443 174 -635 195 -33 4 -64 10 -69 12 -8 6 -382 13 -388 8z m417 -334 c97
-15 308 -66 352 -86 17 -8 36 -15 42 -15 24 0 232 -109 313 -163 101 -68 227
-187 301 -284 94 -124 182 -316 208 -456 5 -29 11 -63 14 -77 7 -38 21 -278
24 -417 l1 -61 43 -8 c23 -4 45 -7 49 -6 14 3 166 -28 207 -42 136 -49 234
-155 285 -306 34 -104 40 -145 40 -300 0 -151 -14 -220 -65 -327 -26 -56 -113
-157 -170 -199 -29 -21 -127 -65 -194 -86 l-70 -23 -1635 -2 c-1787 -1 -1712
-4 -1865 57 -309 123 -478 396 -470 760 4 193 52 348 149 483 142 199 349 309
640 343 33 3 67 8 75 9 9 2 21 4 27 4 5 1 20 36 33 79 137 473 426 851 776
1012 131 61 272 101 400 116 33 3 61 7 63 9 8 8 357 -4 427 -14z"/>
<path d="M2535 3113 c-15 -49 -29 -95 -32 -103 -4 -14 -61 -201 -168 -560 -24
-80 -78 -260 -120 -400 -42 -140 -88 -292 -101 -337 -13 -45 -27 -89 -30 -97
-5 -14 12 -16 155 -16 l160 0 31 103 c17 56 46 152 65 212 18 61 43 144 55
185 12 41 30 102 41 135 32 106 190 634 224 750 10 33 28 93 41 134 13 40 24
75 24 77 0 2 -72 4 -160 4 l-159 0 -26 -87z"/>
<path d="M1520 2641 l-395 -238 0 -162 0 -163 395 -158 395 -158 3 156 c2 111
-1 158 -9 163 -7 4 -112 40 -233 80 -122 40 -223 74 -225 75 -7 6 26 30 139
104 63 41 117 77 120 80 3 3 30 21 60 40 30 19 57 37 60 40 3 3 24 18 48 33
l42 27 0 160 c0 88 -1 160 -2 159 -2 0 -181 -107 -398 -238z"/>
<path d="M3040 2721 l0 -161 168 -112 c92 -62 172 -115 177 -118 26 -13 125
-84 125 -89 0 -3 -100 -39 -223 -79 -122 -40 -228 -76 -235 -81 -9 -6 -12 -46
-10 -163 l3 -156 395 158 395 158 3 161 2 160 -55 36 c-30 19 -57 35 -59 35
-2 0 -63 36 -137 80 -74 44 -141 85 -149 90 -27 16 -374 225 -387 233 -10 6
-13 -23 -13 -152z"/>
</g>
</svg>
